Rusty Reindeer (Savage) stumbles into a support group where the Easter Bunny, Cupid, and other down-and-out holiday icons congregate.





Video

Codec ID/Hint : XviD
Duration : 1h 0mn
Bit rate : 1 506 Kbps
Width : 720 pixels
Height : 400 pixels
Display aspect ratio : 16:9
Frame rate : 25.000 fps
Color space : YUV
Chroma subsampling : 4:2:0
Bit depth : 8 bits
Scan type : Progressive
Bits/(Pixel*Frame) : 0.209
Stream size : 652 MiB (93%)
Writing library : XviD 57


Audio
ID : 1
Format : MPEG Audio
Format version : Version 1
Format profile : Layer 3
Mode : Joint stereo
Mode extension : MS Stereo
Codec ID : 55
Codec ID/Hint : MP3
Duration : 1h 0mn
Bit rate mode : Variable
Bit rate : 103 Kbps
Nominal bit rate : 112 Kbps
Channel(s) : 2 channels
Sampling rate : 48.0 KHz
Stream size : 44.5 MiB (6%)
Alignment : Aligned on interleaves
Interleave, duration : 24 ms (0.60 video frame)
Interleave, preload duration : 537 ms
Writing library : LAME3.97 


IMDB 
http://www.imdb.com/title/tt0849447/





================================== 
http://thepiratebay.org/user/hiest
==================================





Screenshots:
 
http://leetleech.org/images/03038342128993330715.png
 
http://leetleech.org/images/99926322142362509751.png
 
http://leetleech.org/images/77465064821933201199.png